<?xml version="1.0" encoding="UTF-8"?>
<svg xmlns="http://www.w3.org/2000/svg" xmlns:xlink="http://www.w3.org/1999/xlink" version="1.1" viewBox="0 0 360 144">
  <defs>
    <style>
      .cls-1 {
        fill: url(#New_Gradient_Swatch_3-5);
      }

      .cls-2 {
        fill: url(#New_Gradient_Swatch_3-6);
      }

      .cls-3 {
        fill: url(#New_Gradient_Swatch_3-2);
      }

      .cls-4 {
        fill: url(#New_Gradient_Swatch_3-4);
      }

      .cls-5 {
        fill: url(#New_Gradient_Swatch_3-9);
      }

      .cls-6 {
        fill: url(#New_Gradient_Swatch_3-8);
      }

      .cls-7 {
        fill: url(#New_Gradient_Swatch_3-3);
      }

      .cls-8 {
        fill: url(#New_Gradient_Swatch_3-7);
      }

      .cls-9 {
        fill: #fff;
      }

      .cls-10 {
        fill: url(#New_Gradient_Swatch_3);
      }

      .cls-11 {
        fill: url(#New_Gradient_Swatch_3-27);
      }

      .cls-12 {
        fill: url(#New_Gradient_Swatch_3-24);
      }

      .cls-13 {
        fill: url(#New_Gradient_Swatch_3-28);
      }

      .cls-14 {
        fill: url(#New_Gradient_Swatch_3-23);
      }

      .cls-15 {
        fill: url(#New_Gradient_Swatch_3-29);
      }

      .cls-16 {
        fill: url(#New_Gradient_Swatch_3-26);
      }

      .cls-17 {
        fill: url(#New_Gradient_Swatch_3-19);
      }

      .cls-18 {
        fill: url(#New_Gradient_Swatch_3-17);
      }

      .cls-19 {
        fill: url(#New_Gradient_Swatch_3-18);
      }

      .cls-20 {
        fill: url(#New_Gradient_Swatch_3-30);
      }

      .cls-21 {
        fill: url(#New_Gradient_Swatch_3-31);
      }

      .cls-22 {
        fill: url(#New_Gradient_Swatch_3-13);
      }

      .cls-23 {
        fill: url(#New_Gradient_Swatch_3-14);
      }

      .cls-24 {
        fill: url(#New_Gradient_Swatch_3-15);
      }

      .cls-25 {
        fill: url(#New_Gradient_Swatch_3-16);
      }

      .cls-26 {
        fill: url(#New_Gradient_Swatch_3-25);
      }

      .cls-27 {
        fill: url(#New_Gradient_Swatch_3-21);
      }

      .cls-28 {
        fill: url(#New_Gradient_Swatch_3-22);
      }

      .cls-29 {
        fill: url(#New_Gradient_Swatch_3-20);
      }

      .cls-30 {
        fill: url(#New_Gradient_Swatch_3-11);
      }

      .cls-31 {
        fill: url(#New_Gradient_Swatch_3-10);
      }

      .cls-32 {
        fill: url(#New_Gradient_Swatch_3-12);
      }
    </style>
    <linearGradient id="New_Gradient_Swatch_3" data-name="New Gradient Swatch 3" x1="137.8" y1="26.5" x2="221.6" y2="26.5" gradientUnits="userSpaceOnUse">
      <stop offset="0" stop-color="#ef4136"/>
      <stop offset="1" stop-color="#f9b29c"/>
    </linearGradient>
    <linearGradient id="New_Gradient_Swatch_3-2" data-name="New Gradient Swatch 3" x1="34.1" y1="127.4" x2="139.4" y2="127.4" xlink:href="#New_Gradient_Swatch_3"/>
    <linearGradient id="New_Gradient_Swatch_3-3" data-name="New Gradient Swatch 3" x1="34.1" y1="127.4" x2="139.4" y2="127.4" xlink:href="#New_Gradient_Swatch_3"/>
    <linearGradient id="New_Gradient_Swatch_3-4" data-name="New Gradient Swatch 3" x1="34.1" y1="127.4" x2="139.4" y2="127.4" xlink:href="#New_Gradient_Swatch_3"/>
    <linearGradient id="New_Gradient_Swatch_3-5" data-name="New Gradient Swatch 3" x1="34.1" y1="127.4" x2="139.4" y2="127.4" xlink:href="#New_Gradient_Swatch_3"/>
    <linearGradient id="New_Gradient_Swatch_3-6" data-name="New Gradient Swatch 3" x1="34.1" y1="127.4" x2="139.4" y2="127.4" xlink:href="#New_Gradient_Swatch_3"/>
    <linearGradient id="New_Gradient_Swatch_3-7" data-name="New Gradient Swatch 3" x1="34.1" y1="127.4" x2="139.4" y2="127.4" xlink:href="#New_Gradient_Swatch_3"/>
    <linearGradient id="New_Gradient_Swatch_3-8" data-name="New Gradient Swatch 3" x1="34.1" y1="127.4" x2="139.4" y2="127.4" xlink:href="#New_Gradient_Swatch_3"/>
    <linearGradient id="New_Gradient_Swatch_3-9" data-name="New Gradient Swatch 3" x1="34.1" y1="127.4" x2="139.4" y2="127.4" xlink:href="#New_Gradient_Swatch_3"/>
    <linearGradient id="New_Gradient_Swatch_3-10" data-name="New Gradient Swatch 3" x1="34.1" y1="127.4" x2="139.4" y2="127.4" xlink:href="#New_Gradient_Swatch_3"/>
    <linearGradient id="New_Gradient_Swatch_3-11" data-name="New Gradient Swatch 3" x1="34.1" y1="127.3" x2="139.4" y2="127.3" xlink:href="#New_Gradient_Swatch_3"/>
    <linearGradient id="New_Gradient_Swatch_3-12" data-name="New Gradient Swatch 3" x1="34.1" y1="127.4" x2="139.4" y2="127.4" xlink:href="#New_Gradient_Swatch_3"/>
    <linearGradient id="New_Gradient_Swatch_3-13" data-name="New Gradient Swatch 3" x1="34.1" y1="127.4" x2="139.4" y2="127.4" xlink:href="#New_Gradient_Swatch_3"/>
    <linearGradient id="New_Gradient_Swatch_3-14" data-name="New Gradient Swatch 3" x1="181.2" y1="127.4" x2="323.9" y2="127.4" xlink:href="#New_Gradient_Swatch_3"/>
    <linearGradient id="New_Gradient_Swatch_3-15" data-name="New Gradient Swatch 3" x1="181.2" y1="127.4" x2="323.9" y2="127.4" xlink:href="#New_Gradient_Swatch_3"/>
    <linearGradient id="New_Gradient_Swatch_3-16" data-name="New Gradient Swatch 3" x1="181.2" y1="127.4" x2="323.9" y2="127.4" xlink:href="#New_Gradient_Swatch_3"/>
    <linearGradient id="New_Gradient_Swatch_3-17" data-name="New Gradient Swatch 3" x1="181.2" y1="127.4" x2="323.9" y2="127.4" xlink:href="#New_Gradient_Swatch_3"/>
    <linearGradient id="New_Gradient_Swatch_3-18" data-name="New Gradient Swatch 3" x1="181.2" y1="127.4" x2="323.9" y2="127.4" xlink:href="#New_Gradient_Swatch_3"/>
    <linearGradient id="New_Gradient_Swatch_3-19" data-name="New Gradient Swatch 3" x1="181.2" y1="127.4" x2="323.9" y2="127.4" xlink:href="#New_Gradient_Swatch_3"/>
    <linearGradient id="New_Gradient_Swatch_3-20" data-name="New Gradient Swatch 3" x1="181.2" y1="127.4" x2="323.9" y2="127.4" xlink:href="#New_Gradient_Swatch_3"/>
    <linearGradient id="New_Gradient_Swatch_3-21" data-name="New Gradient Swatch 3" x1="181.2" y1="127.4" x2="323.9" y2="127.4" xlink:href="#New_Gradient_Swatch_3"/>
    <linearGradient id="New_Gradient_Swatch_3-22" data-name="New Gradient Swatch 3" x1="181.2" y1="127.4" x2="323.9" y2="127.4" xlink:href="#New_Gradient_Swatch_3"/>
    <linearGradient id="New_Gradient_Swatch_3-23" data-name="New Gradient Swatch 3" x1="181.2" y1="127.4" x2="323.9" y2="127.4" xlink:href="#New_Gradient_Swatch_3"/>
    <linearGradient id="New_Gradient_Swatch_3-24" data-name="New Gradient Swatch 3" x1="181.2" y1="127.4" x2="323.9" y2="127.4" xlink:href="#New_Gradient_Swatch_3"/>
    <linearGradient id="New_Gradient_Swatch_3-25" data-name="New Gradient Swatch 3" x1="181.2" y1="127.5" x2="323.9" y2="127.5" xlink:href="#New_Gradient_Swatch_3"/>
    <linearGradient id="New_Gradient_Swatch_3-26" data-name="New Gradient Swatch 3" x1="181.2" y1="127.4" x2="323.9" y2="127.4" xlink:href="#New_Gradient_Swatch_3"/>
    <linearGradient id="New_Gradient_Swatch_3-27" data-name="New Gradient Swatch 3" x1="181.2" y1="127.4" x2="323.9" y2="127.4" xlink:href="#New_Gradient_Swatch_3"/>
    <linearGradient id="New_Gradient_Swatch_3-28" data-name="New Gradient Swatch 3" x1="181.2" y1="127.4" x2="323.9" y2="127.4" xlink:href="#New_Gradient_Swatch_3"/>
    <linearGradient id="New_Gradient_Swatch_3-29" data-name="New Gradient Swatch 3" x1="181.2" y1="127.4" x2="323.9" y2="127.4" xlink:href="#New_Gradient_Swatch_3"/>
    <linearGradient id="New_Gradient_Swatch_3-30" data-name="New Gradient Swatch 3" x1="181.2" y1="127.4" x2="323.9" y2="127.4" xlink:href="#New_Gradient_Swatch_3"/>
    <linearGradient id="New_Gradient_Swatch_3-31" data-name="New Gradient Swatch 3" x1="156.7" y1="128.5" x2="167.5" y2="128.5" xlink:href="#New_Gradient_Swatch_3"/>
  </defs>
  <!-- Generator: Adobe Illustrator 28.7.2, SVG Export Plug-In . SVG Version: 1.2.0 Build 154)  -->
  <g>
    <g id="Layer_1">
      <path class="cls-10" d="M221.6,30.1c0-.4-.2-.7-.5-.9h0s-5.1-2.9-5.1-2.9l.3-3.5c0-.9-.7-1.6-1.6-1.6s-1.6.7-1.6,1.6v1.9c.1,0-16.6-9.3-16.6-9.3h0c-1.8-1-3.8-1.5-6-1.5s-3.7.4-5.3,1.2h0s-.1,0-.1,0c-.6.3-1.1.6-1.6,1l-22.2,12.9h0c-.4.2-.6.5-.6,1s.5,1.1,1.1,1.1h.2c0,0,3.2-1.6,3.2-1.6l.7,5.4-27.1,1c-.4,0-.7.3-.7.7s.3.7.7.7l42.4,1.6c1.3,0,2.3-1,2.3-2.3s-1-2.3-2.3-2.3l-12.8.5.7-7.2,9.5-4.6,8.6-4.1,1.5-.7c.6-.2,1.2-.3,1.9-.3s1.8.2,2.5.6h0s0,0,0,0h0s9.3,4.3,9.3,4.3l18.2,8.3c.4,0,.7-.2.9-.6h0s0,0,0,0c0-.1.1-.3.1-.5Z"/>
      <g>
        <path class="cls-9" d="M23,56.3h14.3c2.6,0,4.9.5,6.8,1.6,2,1.1,3.5,2.7,4.6,4.7,1.1,2,1.7,4.3,1.7,6.9s-.5,4.9-1.5,6.9c-1,2-2.5,3.5-4.6,4.7s-4.2,1.7-6.5,1.7h-14.8v-1.7h2.2c.5,0,.9-.1,1.2-.4s.4-.7.4-1.2v-20c0-.5-.1-.9-.4-1.2-.3-.2-.8-.4-1.5-.4h-2v-1.7ZM36,81.2c1.6,0,3.1-.4,4.4-1.2,1.3-.8,2.2-2,2.7-3.4.6-1.4.8-3.6.8-6.6s-.3-5.6-1-7.3c-.7-1.7-1.6-2.9-2.7-3.6-1.1-.7-2.8-1.1-5-1.1s-2,.1-2.3.3-.5.6-.5,1.1v20.1c0,.6.1,1,.4,1.3.2.3.6.4,1.2.4h1.9Z"/>
        <path class="cls-9" d="M53.5,56.3h23.1l.5,9.3h-1.6c-.4-2.2-.8-3.8-1.4-4.7-.6-1-1.3-1.7-2.2-2.2-.9-.5-2.1-.7-3.5-.7h-3.6c-.6,0-1,.1-1.2.3-.3.2-.4.5-.4.9v9.2h1.2c1.4,0,2.5-.4,3.3-1.2.8-.8,1.2-2.1,1.4-3.9h1.6v12.3h-1.6c-.1-2-.6-3.5-1.3-4.3-.8-.8-2-1.3-3.6-1.3h-1v9.8c0,.4.1.7.4.9.4.3.9.4,1.6.4h3.2c2.2,0,4-.7,5.4-2.1,1.4-1.4,2.2-3.5,2.6-6.3h1.6l-.4,10.1h-24.1v-1.7h2.4c.5,0,.9-.1,1.2-.4.3-.3.4-.6.4-1.1v-20.4c0-.4-.1-.7-.4-1-.3-.2-.8-.3-1.5-.3h-2.1v-1.7Z"/>
        <path class="cls-9" d="M98.2,58.4l1.7-2.4h1.3l.2,9.2h-1.6c-.8-2.6-2-4.6-3.6-5.9s-3.2-2-5.1-2-2.9.4-3.9,1.3c-1,.9-1.5,1.9-1.5,3.1s.2,1.4.6,2c.4.6,1,1.1,1.9,1.5.9.4,2.4.9,4.6,1.3,2.6.5,4.3,1,5.3,1.4,1.6.7,2.7,1.6,3.5,2.8s1.2,2.5,1.2,4.2c0,2.4-.8,4.4-2.5,5.9-2,1.8-4.5,2.6-7.5,2.6s-5.3-1-7.6-2.9l-2.1,2.6h-1.3v-9.8h1.6c1.6,5.6,4.7,8.4,9.5,8.4s3.5-.5,4.6-1.4,1.6-2,1.6-3.4-.2-1.7-.7-2.4c-.5-.6-1.2-1.2-2.2-1.5-.5-.2-1.9-.6-4.1-1-2.9-.6-5-1.3-6.3-2s-2.2-1.5-2.7-2.5c-.6-1-.9-2.2-.9-3.6,0-2.4.8-4.4,2.4-5.9,1.6-1.5,3.8-2.3,6.5-2.3s5,.9,7.2,2.7Z"/>
        <path class="cls-9" d="M105.8,56.3h23.1l.5,9.3h-1.6c-.4-2.2-.8-3.8-1.4-4.7-.6-1-1.3-1.7-2.2-2.2-.9-.5-2.1-.7-3.5-.7h-3.6c-.6,0-1,.1-1.2.3-.3.2-.4.5-.4.9v9.2h1.2c1.4,0,2.5-.4,3.3-1.2.8-.8,1.2-2.1,1.4-3.9h1.6v12.3h-1.6c-.1-2-.6-3.5-1.3-4.3-.8-.8-2-1.3-3.6-1.3h-1v9.8c0,.4.1.7.4.9.4.3.9.4,1.6.4h3.2c2.2,0,4-.7,5.4-2.1,1.4-1.4,2.2-3.5,2.6-6.3h1.6l-.4,10.1h-24.1v-1.7h2.4c.5,0,.9-.1,1.2-.4.3-.3.4-.6.4-1.1v-20.4c0-.4-.1-.7-.4-1-.3-.2-.8-.3-1.5-.3h-2.1v-1.7Z"/>
        <path class="cls-9" d="M134.5,56.3h13.8c2.2,0,4.1.3,5.5.9,1.4.6,2.5,1.4,3.2,2.4.7,1,1,2.1,1,3.3,0,1.9-.9,3.5-2.6,4.7-1.3.9-3.4,1.5-6.1,1.8,1.4.2,2.4.6,3.2,1.1.7.5,1.4,1.2,2,2.2.8,1.3,1.4,2.8,1.8,4.6.3,1.2.6,1.9.8,2.2.2.3.5.4.8.4.8,0,1.3-1,1.4-3.1h1.6c-.1,2.2-.6,3.8-1.5,4.8-.9,1-2.1,1.4-3.7,1.4s-2-.2-2.7-.7-1.2-1.1-1.6-2c-.2-.5-.5-1.7-.9-3.6-.4-2.2-.8-3.7-1.2-4.5-.4-.8-.8-1.3-1.4-1.7-.6-.4-1.3-.6-2.1-.6h-2v9.8c0,.4.1.8.4,1,.4.3.8.4,1.3.4h2.4v1.7h-13.4v-1.7h2.1c.5,0,.9-.1,1.2-.4.3-.3.4-.7.4-1.2v-20c0-.5-.1-1-.4-1.2-.3-.3-.6-.4-1.1-.4h-2.3v-1.7ZM143.9,68.3h2.2c2,0,3.5-.5,4.7-1.5.9-.8,1.3-2.1,1.3-3.9s-.4-2.9-1.3-3.7c-.8-.8-2.3-1.2-4.4-1.2s-1.8.1-2.1.4c-.3.2-.4.8-.4,1.6v8.3Z"/>
        <path class="cls-9" d="M164.1,56.3h23.2l.6,10.1h-1.6c-.4-2.2-.9-3.8-1.5-5-.6-1.2-1.3-2.1-2.1-2.6-.8-.5-1.6-.8-2.6-.8s-.9.1-1.2.3-.4.5-.4,1v20.5c0,.4.1.7.4,1,.2.3.5.4.9.4h3v1.7h-14.2v-1.7h2.9c.4,0,.8-.1,1-.4.3-.2.4-.6.4-1v-20.4c0-.5-.1-.8-.4-1.1-.3-.2-.7-.3-1.2-.3-3,0-5.1,2.8-6.2,8.4h-1.6l.6-10.1Z"/>
        <path class="cls-9" d="M211.1,56.3h23.1l.5,9.3h-1.6c-.4-2.2-.8-3.8-1.4-4.7-.6-1-1.3-1.7-2.2-2.2-.9-.5-2.1-.7-3.5-.7h-3.6c-.6,0-1,.1-1.2.3s-.4.5-.4.9v9.2h1.2c1.4,0,2.5-.4,3.3-1.2.8-.8,1.2-2.1,1.4-3.9h1.6v12.3h-1.6c-.1-2-.6-3.5-1.3-4.3-.8-.8-2-1.3-3.6-1.3h-1v9.8c0,.4.1.7.4.9.4.3.9.4,1.6.4h3.2c2.2,0,4-.7,5.4-2.1,1.4-1.4,2.2-3.5,2.6-6.3h1.6l-.4,10.1h-24.1v-1.7h2.4c.5,0,.9-.1,1.2-.4.3-.3.4-.6.4-1.1v-20.4c0-.4-.1-.7-.4-1-.3-.2-.8-.3-1.5-.3h-2.1v-1.7Z"/>
        <path class="cls-9" d="M240.3,58v-1.7h13.6v1.7h-2.3c-.7,0-1.1.1-1.4.4s-.4.7-.4,1.2v19.7c0,.8.1,1.3.4,1.5s.8.3,1.8.3h3.8c1.4,0,2.7-.7,4-2,1.2-1.4,2.2-3.5,2.8-6.5h1.6l-.6,10.2h-23.3v-1.7h2.3c.5,0,.9-.1,1.2-.4s.4-.6.4-1.1v-20.3c0-.5-.1-.8-.4-1.1s-.7-.3-1.4-.3h-2.1Z"/>
        <path class="cls-9" d="M267.6,56.3h13.6v1.7h-2.5c-.5,0-.9.1-1.1.3s-.4.5-.4.9v20.5c0,.5.1.8.4,1,.3.3.8.4,1.4.4h2.2v1.7h-13.6v-1.7h2.1c.7,0,1.2-.1,1.5-.4.3-.2.4-.6.4-1.1v-20.3c0-.5-.1-.9-.4-1.1-.3-.2-.7-.4-1.3-.4h-2.4v-1.7Z"/>
        <path class="cls-9" d="M285.4,56.3h23.2l.6,10.1h-1.6c-.4-2.2-.9-3.8-1.5-5-.6-1.2-1.3-2.1-2.1-2.6s-1.6-.8-2.6-.8-.9.1-1.2.3c-.3.2-.4.5-.4,1v20.5c0,.4.1.7.4,1s.5.4.9.4h3v1.7h-14.2v-1.7h2.9c.4,0,.8-.1,1-.4.3-.2.4-.6.4-1v-20.4c0-.5-.1-.8-.4-1.1-.3-.2-.7-.3-1.2-.3-3,0-5.1,2.8-6.2,8.4h-1.6l.6-10.1Z"/>
        <path class="cls-9" d="M312.4,56.3h23.1l.5,9.3h-1.6c-.4-2.2-.8-3.8-1.4-4.7-.6-1-1.3-1.7-2.2-2.2-.9-.5-2.1-.7-3.5-.7h-3.6c-.6,0-1,.1-1.2.3s-.4.5-.4.9v9.2h1.2c1.4,0,2.5-.4,3.3-1.2.8-.8,1.2-2.1,1.4-3.9h1.6v12.3h-1.6c-.1-2-.6-3.5-1.3-4.3-.8-.8-2-1.3-3.6-1.3h-1v9.8c0,.4.1.7.4.9.4.3.9.4,1.6.4h3.2c2.2,0,4-.7,5.4-2.1,1.4-1.4,2.2-3.5,2.6-6.3h1.6l-.4,10.1h-24.1v-1.7h2.4c.5,0,.9-.1,1.2-.4.3-.3.4-.6.4-1.1v-20.4c0-.4-.1-.7-.4-1-.3-.2-.8-.3-1.5-.3h-2.1v-1.7Z"/>
      </g>
      <g>
        <path class="cls-9" d="M48.3,90.6h5.7v.8h-.8c-.2,0-.4,0-.5.2-.1.1-.2.2-.2.4v4h4.7v-3.8c0-.3,0-.5-.2-.6-.1-.1-.3-.2-.6-.2h-.7v-.8h5.7v.8h-.8c-.3,0-.5,0-.6.2-.1.1-.2.3-.2.5v9.3c0,.3,0,.5.2.6.1.1.3.2.5.2h.9v.8h-5.7v-.8h.9c.2,0,.4,0,.5-.2.1-.1.2-.3.2-.5v-4.4h-4.7v4.4c0,.2,0,.4.1.5,0,.1.2.2.4.2h1v.8h-5.7v-.8h.9c.2,0,.4,0,.5-.2,0-.1.1-.3.1-.5v-9.2c0-.3,0-.5-.2-.6-.1-.1-.3-.2-.6-.2h-.7v-.8Z"/>
        <path class="cls-9" d="M69.6,90.3c1.2,0,2.2.3,3.2.8s1.7,1.3,2.3,2.3c.5,1,.8,2,.8,3.3,0,1.8-.6,3.4-1.8,4.6-1.2,1.2-2.7,1.8-4.5,1.8s-2.2-.3-3.2-.8c-.9-.6-1.7-1.3-2.2-2.3-.5-.9-.8-2-.8-3.3,0-1.9.6-3.4,1.8-4.6,1.2-1.2,2.7-1.8,4.4-1.8ZM69.7,91c-.7,0-1.2.2-1.7.5-.5.4-.9.9-1.2,1.8-.3.8-.4,1.9-.4,3.3s.1,2.6.4,3.4c.3.8.6,1.3,1.1,1.7s1.1.5,1.8.5c1,0,1.8-.4,2.4-1.3.6-.8.9-2.3.9-4.4s-.1-2.6-.4-3.3-.6-1.3-1.1-1.6-1.1-.5-1.7-.5Z"/>
        <path class="cls-9" d="M77.7,90.6h4.9l2.8,8.3,2.8-8.3h5.1v.8h-1.1c-.3,0-.5,0-.6.1-.1,0-.2.3-.2.5v9.4c0,.2,0,.4.2.5.2.1.4.2.7.2h1v.8h-6.2v-.8h1.2c.2,0,.4,0,.5-.2.1-.1.2-.3.2-.5v-10l-3.9,11.5h-.7l-3.9-11.6v9c0,.5.2.9.5,1.3.3.3.8.5,1.4.6v.8h-4.6v-.8c.6,0,1-.3,1.3-.6.3-.4.5-.8.5-1.4v-7.9c0-.3,0-.6-.2-.7-.1-.1-.3-.2-.7-.2h-1v-.8Z"/>
        <path class="cls-9" d="M94.9,90.6h10.7l.2,4.3h-.7c-.2-1-.4-1.7-.6-2.2-.3-.4-.6-.8-1-1-.4-.2-1-.3-1.6-.3h-1.7c-.3,0-.4,0-.6.2-.1.1-.2.2-.2.4v4.3h.6c.7,0,1.2-.2,1.5-.6.4-.4.6-1,.6-1.8h.7v5.7h-.7c0-.9-.3-1.6-.6-2-.4-.4-.9-.6-1.6-.6h-.5v4.5c0,.2,0,.3.2.4.2.1.4.2.8.2h1.5c1,0,1.8-.3,2.5-1s1-1.6,1.2-2.9h.7l-.2,4.7h-11.1v-.8h1.1c.2,0,.4,0,.6-.2.1-.1.2-.3.2-.5v-9.4c0-.2,0-.3-.2-.4-.1,0-.4-.1-.7-.1h-1v-.8Z"/>
        <path class="cls-9" d="M116.1,91.5l.8-1.1h.6v4.2c0,0-.7,0-.7,0-.4-1.2-.9-2.1-1.6-2.7-.7-.6-1.5-.9-2.4-.9s-1.3.2-1.8.6c-.5.4-.7.9-.7,1.4s0,.6.3.9c.2.3.5.5.9.7.4.2,1.1.4,2.1.6,1.2.2,2,.5,2.5.7.7.3,1.3.7,1.6,1.3.4.5.5,1.2.5,1.9,0,1.1-.4,2-1.2,2.7-.9.8-2.1,1.2-3.5,1.2s-2.4-.4-3.5-1.3l-1,1.2h-.6v-4.5h.7c.7,2.6,2.2,3.9,4.4,3.9s1.6-.2,2.1-.6.8-.9.8-1.6-.1-.8-.3-1.1c-.2-.3-.6-.5-1-.7-.3,0-.9-.3-1.9-.5-1.4-.3-2.3-.6-2.9-.9s-1-.7-1.3-1.2-.4-1-.4-1.7c0-1.1.4-2,1.1-2.7s1.8-1.1,3-1.1,2.3.4,3.3,1.3Z"/>
        <path class="cls-9" d="M135.4,95.6c1,1.6,1.9,3,2.9,4.2.8-1,1.1-1.8,1.1-2.3s-.1-.5-.3-.7c-.2-.2-.6-.3-1.2-.3v-.7h4.7v.7c-.6,0-1,.1-1.3.3s-.7.7-1.1,1.5c-.4.7-.8,1.4-1.3,2,.4.5.8.8,1.1.9s.5.2.8.2.6-.1.9-.4c.2-.3.4-.7.4-1.3h.7c0,1.1-.2,1.8-.7,2.4-.5.6-1.2.9-2.1.9s-.9,0-1.3-.2c-.4-.2-.9-.5-1.5-.9-.7.4-1.3.7-1.8.9-.5.2-1.1.2-1.7.2-1.1,0-2.1-.3-2.7-1-.7-.6-1-1.4-1-2.4,0-1.6,1.1-2.9,3.2-3.8-.4-.8-.6-1.4-.7-1.8-.1-.4-.2-.8-.2-1.1,0-.8.3-1.4.9-2,.6-.5,1.4-.8,2.4-.8s1.8.2,2.3.6c.5.4.8,1,.8,1.6s-.2,1.1-.7,1.6c-.4.5-1.3,1-2.4,1.6ZM133.4,96.7c-.4.3-.8.7-.9,1s-.3.7-.3,1.1c0,.7.3,1.4.8,2.1s1.2,1,1.9,1,1.1-.2,1.7-.5c-.9-1.1-1.5-1.9-1.7-2.3-.3-.4-.7-1.2-1.4-2.3ZM135.1,95c.6-.3,1.1-.6,1.3-1,.2-.4.4-.8.4-1.3s-.1-1-.3-1.2c-.2-.3-.5-.4-.9-.4s-.7.1-.9.4-.4.6-.4,1.1c0,.6.3,1.5.9,2.5Z"/>
        <path class="cls-9" d="M164.1,91.5l.6-1.2h.6l.2,4.9h-.8c-.2-1.4-.7-2.5-1.3-3.2-.7-.7-1.4-1-2.3-1s-1.7.4-2.3,1.3-.9,2.3-.9,4.2.3,3.5,1,4.5c.5.8,1.3,1.2,2.4,1.2s1.9-.4,2.6-1.2c.5-.6.9-1.4,1.1-2.5h.7c-.2,1.4-.7,2.5-1.6,3.3-.9.8-2,1.2-3.3,1.2s-3.1-.6-4.2-1.8-1.7-2.7-1.7-4.6.7-3.7,2-4.9c1.1-1,2.4-1.6,3.9-1.6s1.1,0,1.6.3c.5.2,1,.5,1.6,1Z"/>
        <path class="cls-9" d="M174.3,90.3c1.2,0,2.2.3,3.2.8s1.7,1.3,2.3,2.3c.5,1,.8,2,.8,3.3,0,1.8-.6,3.4-1.8,4.6-1.2,1.2-2.7,1.8-4.5,1.8s-2.2-.3-3.2-.8c-.9-.6-1.7-1.3-2.2-2.3-.5-.9-.8-2-.8-3.3,0-1.9.6-3.4,1.8-4.6,1.2-1.2,2.7-1.8,4.4-1.8ZM174.4,91c-.7,0-1.2.2-1.7.5-.5.4-.9.9-1.2,1.8-.3.8-.4,1.9-.4,3.3s.1,2.6.4,3.4c.3.8.6,1.3,1.1,1.7s1.1.5,1.8.5c1,0,1.8-.4,2.4-1.3.6-.8.9-2.3.9-4.4s-.1-2.6-.4-3.3-.6-1.3-1.1-1.6-1.1-.5-1.7-.5Z"/>
        <path class="cls-9" d="M182.6,90.6h3.8l6.6,8.4v-5.7c0-.6-.2-1-.5-1.4s-.8-.5-1.4-.6v-.8h4.5v.8c-.6,0-1.1.3-1.3.6-.3.3-.4.8-.4,1.4v9.6h-1l-7.6-9.7v6.7c0,.8.2,1.3.5,1.7s.8.5,1.3.5h.2v.8h-4.9v-.8h.3c.5,0,.9-.2,1.2-.6.3-.4.5-.9.5-1.5v-7.9c-.4-.5-.8-.7-1.4-.7h-.5v-.8Z"/>
        <path class="cls-9" d="M205.1,91.5l.8-1.1h.6v4.2c0,0-.7,0-.7,0-.4-1.2-.9-2.1-1.6-2.7-.7-.6-1.5-.9-2.4-.9s-1.3.2-1.8.6c-.5.4-.7.9-.7,1.4s0,.6.3.9c.2.3.5.5.9.7.4.2,1.1.4,2.1.6,1.2.2,2,.5,2.5.7.7.3,1.3.7,1.6,1.3.4.5.5,1.2.5,1.9,0,1.1-.4,2-1.2,2.7-.9.8-2.1,1.2-3.5,1.2s-2.4-.4-3.5-1.3l-1,1.2h-.6v-4.5h.7c.7,2.6,2.2,3.9,4.4,3.9s1.6-.2,2.1-.6.8-.9.8-1.6-.1-.8-.3-1.1c-.2-.3-.6-.5-1-.7-.3,0-.9-.3-1.9-.5-1.4-.3-2.3-.6-2.9-.9-.6-.3-1-.7-1.3-1.2s-.4-1-.4-1.7c0-1.1.4-2,1.1-2.7.7-.7,1.8-1.1,3-1.1s2.3.4,3.3,1.3Z"/>
        <path class="cls-9" d="M209.4,90.6h10.7l.3,4.7h-.8c-.2-1-.4-1.8-.7-2.3s-.6-1-1-1.2c-.4-.2-.8-.4-1.2-.4s-.4,0-.5.2c-.1.1-.2.2-.2.4v9.5c0,.2,0,.3.2.4s.2.2.4.2h1.4v.8h-6.6v-.8h1.3c.2,0,.4,0,.5-.2.1-.1.2-.3.2-.5v-9.4c0-.2,0-.4-.2-.5-.1-.1-.3-.2-.6-.2-1.4,0-2.4,1.3-2.9,3.9h-.7l.3-4.7Z"/>
        <path class="cls-9" d="M222.4,90.6h6.4c1,0,1.9.1,2.5.4s1.1.6,1.5,1.1c.3.5.5,1,.5,1.5,0,.9-.4,1.6-1.2,2.2-.6.4-1.6.7-2.8.8.6.1,1.1.3,1.5.5.3.2.6.6.9,1,.3.6.6,1.3.9,2.1.1.5.3.9.4,1,.1.1.2.2.4.2.4,0,.6-.5.7-1.5h.7c0,1-.3,1.8-.7,2.2s-1,.7-1.7.7-.9-.1-1.3-.3c-.3-.2-.6-.5-.7-.9,0-.2-.2-.8-.4-1.7-.2-1-.4-1.7-.6-2.1-.2-.4-.4-.6-.6-.8s-.6-.3-1-.3h-.9v4.5c0,.2,0,.4.2.5.2.1.4.2.6.2h1.1v.8h-6.2v-.8h1c.2,0,.4,0,.6-.2s.2-.3.2-.5v-9.2c0-.3,0-.4-.2-.6-.1-.1-.3-.2-.5-.2h-1v-.8ZM226.7,96.1h1c.9,0,1.6-.2,2.2-.7.4-.4.6-1,.6-1.8s-.2-1.4-.6-1.7c-.4-.4-1.1-.5-2-.5s-.8,0-1,.2-.2.4-.2.8v3.9Z"/>
        <path class="cls-9" d="M236.3,90.6h6.2v.8h-1.3c-.2,0-.3,0-.4.2,0,.1-.1.3-.1.5v6.8c0,1,.3,1.7.8,2.2.5.5,1.2.8,2.1.8s1.3-.1,1.8-.4c.4-.2.7-.6,1-1,.3-.5.4-1.1.4-1.8v-5.2c0-.7-.1-1.2-.4-1.5-.3-.3-.7-.5-1.2-.5h-.2v-.8h4.7v.8h-.3c-.5,0-.9.2-1.1.6-.3.4-.4.8-.4,1.4v5.6c0,1.3-.4,2.3-1.3,3-.8.8-2,1.2-3.5,1.2s-2-.2-2.8-.5-1.3-.8-1.7-1.3c-.3-.5-.5-1.3-.5-2.2v-6.9c0-.3,0-.5-.2-.7-.1-.1-.3-.2-.7-.2h-.9v-.8Z"/>
        <path class="cls-9" d="M260.9,91.5l.6-1.2h.6l.2,4.9h-.8c-.2-1.4-.7-2.5-1.3-3.2-.7-.7-1.4-1-2.3-1s-1.7.4-2.3,1.3c-.6.9-.9,2.3-.9,4.2s.3,3.5,1,4.5c.5.8,1.3,1.2,2.4,1.2s1.9-.4,2.6-1.2c.5-.6.9-1.4,1.1-2.5h.7c-.2,1.4-.7,2.5-1.6,3.3s-2,1.2-3.3,1.2-3.1-.6-4.2-1.8-1.7-2.7-1.7-4.6.7-3.7,2-4.9c1.1-1,2.4-1.6,3.9-1.6s1.1,0,1.6.3c.5.2,1,.5,1.6,1Z"/>
        <path class="cls-9" d="M265,90.6h10.7l.3,4.7h-.8c-.2-1-.4-1.8-.7-2.3s-.6-1-1-1.2c-.4-.2-.8-.4-1.2-.4s-.4,0-.5.2c-.1.1-.2.2-.2.4v9.5c0,.2,0,.3.2.4s.2.2.4.2h1.4v.8h-6.6v-.8h1.3c.2,0,.4,0,.5-.2.1-.1.2-.3.2-.5v-9.4c0-.2,0-.4-.2-.5-.1-.1-.3-.2-.6-.2-1.4,0-2.4,1.3-2.9,3.9h-.7l.3-4.7Z"/>
        <path class="cls-9" d="M277.6,90.6h6.3v.8h-1.1c-.2,0-.4,0-.5.1-.1,0-.2.2-.2.4v9.5c0,.2,0,.4.2.5.1.1.4.2.6.2h1v.8h-6.3v-.8h1c.3,0,.6,0,.7-.2.1-.1.2-.3.2-.5v-9.4c0-.2,0-.4-.2-.5-.1-.1-.3-.2-.6-.2h-1.1v-.8Z"/>
        <path class="cls-9" d="M292.1,90.3c1.2,0,2.2.3,3.2.8,1,.6,1.7,1.3,2.3,2.3.5,1,.8,2,.8,3.3,0,1.8-.6,3.4-1.8,4.6-1.2,1.2-2.7,1.8-4.5,1.8s-2.2-.3-3.2-.8c-.9-.6-1.7-1.3-2.2-2.3-.5-.9-.8-2-.8-3.3,0-1.9.6-3.4,1.8-4.6,1.2-1.2,2.7-1.8,4.4-1.8ZM292.1,91c-.7,0-1.2.2-1.7.5s-.9.9-1.2,1.8c-.3.8-.4,1.9-.4,3.3s.1,2.6.4,3.4c.3.8.6,1.3,1.1,1.7s1.1.5,1.8.5c1,0,1.8-.4,2.4-1.3.6-.8.9-2.3.9-4.4s-.1-2.6-.4-3.3-.6-1.3-1.1-1.6-1.1-.5-1.7-.5Z"/>
        <path class="cls-9" d="M300.4,90.6h3.8l6.6,8.4v-5.7c0-.6-.2-1-.5-1.4-.3-.3-.8-.5-1.4-.6v-.8h4.5v.8c-.6,0-1.1.3-1.3.6s-.4.8-.4,1.4v9.6h-1l-7.6-9.7v6.7c0,.8.2,1.3.5,1.7.4.4.8.5,1.3.5h.2v.8h-4.9v-.8h.3c.5,0,.9-.2,1.2-.6.3-.4.5-.9.5-1.5v-7.9c-.4-.5-.8-.7-1.4-.7h-.5v-.8Z"/>
      </g>
      <rect class="cls-9" x="23" y="110.7" width="313.9" height="5.7"/>
      <g>
        <path class="cls-3" d="M34.7,123.5h4.2c.8,0,1.4.2,2,.5.6.3,1,.8,1.4,1.4s.5,1.3.5,2-.1,1.4-.4,2c-.3.6-.7,1-1.3,1.4-.6.3-1.2.5-1.9.5h-4.3v-.5h.6c.2,0,.3,0,.4-.1,0,0,.1-.2.1-.4v-5.9c0-.2,0-.3-.1-.3,0,0-.2-.1-.4-.1h-.6v-.5ZM38.5,130.8c.5,0,.9-.1,1.3-.4.4-.2.6-.6.8-1,.2-.4.2-1.1.2-2s0-1.6-.3-2.1c-.2-.5-.5-.8-.8-1.1s-.8-.3-1.5-.3-.6,0-.7,0c0,0-.1.2-.1.3v5.9c0,.2,0,.3.1.4,0,0,.2.1.3.1h.6Z"/>
        <path class="cls-7" d="M43.8,123.5h6.8l.2,2.7h-.5c-.1-.6-.2-1.1-.4-1.4-.2-.3-.4-.5-.6-.6-.3-.1-.6-.2-1-.2h-1.1c-.2,0-.3,0-.4,0,0,0-.1.2-.1.3v2.7h.4c.4,0,.7-.1,1-.4.2-.2.4-.6.4-1.2h.5v3.6h-.5c0-.6-.2-1-.4-1.3-.2-.2-.6-.4-1-.4h-.3v2.9c0,.1,0,.2.1.3.1,0,.3.1.5.1h.9c.6,0,1.2-.2,1.6-.6s.7-1,.8-1.9h.5v3h-7.2v-.5h.7c.2,0,.3,0,.4-.1,0,0,.1-.2.1-.3v-6c0-.1,0-.2-.1-.3,0,0-.2,0-.4,0h-.6v-.5Z"/>
        <path class="cls-4" d="M57.2,124.1l.5-.7h.4v2.7s-.4,0-.4,0c-.2-.8-.6-1.3-1-1.7-.5-.4-1-.6-1.5-.6s-.8.1-1.1.4c-.3.3-.4.6-.4.9s0,.4.2.6c.1.2.3.3.6.4.3.1.7.3,1.4.4.8.2,1.3.3,1.6.4.5.2.8.5,1,.8s.3.7.3,1.2c0,.7-.2,1.3-.7,1.7-.6.5-1.3.8-2.2.8s-1.6-.3-2.2-.8l-.6.8h-.4v-2.9h.5c.5,1.6,1.4,2.5,2.8,2.5s1-.1,1.3-.4c.3-.3.5-.6.5-1s0-.5-.2-.7c-.1-.2-.4-.3-.7-.5-.2,0-.6-.2-1.2-.3-.9-.2-1.5-.4-1.8-.6-.4-.2-.6-.4-.8-.7-.2-.3-.3-.6-.3-1.1,0-.7.2-1.3.7-1.7s1.1-.7,1.9-.7,1.5.3,2.1.8Z"/>
        <path class="cls-1" d="M59.6,123.5h6.8l.2,2.7h-.5c-.1-.6-.2-1.1-.4-1.4-.2-.3-.4-.5-.6-.6-.3-.1-.6-.2-1-.2h-1.1c-.2,0-.3,0-.4,0,0,0-.1.2-.1.3v2.7h.4c.4,0,.7-.1,1-.4.2-.2.4-.6.4-1.2h.5v3.6h-.5c0-.6-.2-1-.4-1.3-.2-.2-.6-.4-1-.4h-.3v2.9c0,.1,0,.2.1.3.1,0,.3.1.5.1h.9c.6,0,1.2-.2,1.6-.6s.7-1,.8-1.9h.5v3h-7.2v-.5h.7c.2,0,.3,0,.4-.1,0,0,.1-.2.1-.3v-6c0-.1,0-.2-.1-.3,0,0-.2,0-.4,0h-.6v-.5Z"/>
        <path class="cls-2" d="M68.3,123.5h4.1c.7,0,1.2,0,1.6.3s.7.4.9.7c.2.3.3.6.3,1,0,.6-.3,1-.8,1.4-.4.3-1,.4-1.8.5.4,0,.7.2.9.3.2.1.4.4.6.7.2.4.4.8.5,1.4,0,.3.2.6.2.6,0,0,.1.1.2.1.2,0,.4-.3.4-.9h.5c0,.7-.2,1.1-.4,1.4s-.6.4-1.1.4-.6,0-.8-.2c-.2-.1-.4-.3-.5-.6,0-.2-.1-.5-.3-1.1-.1-.7-.2-1.1-.3-1.3-.1-.2-.2-.4-.4-.5-.2-.1-.4-.2-.6-.2h-.6v2.9c0,.1,0,.2.1.3.1,0,.2.1.4.1h.7v.5h-3.9v-.5h.6c.2,0,.3,0,.4-.1,0,0,.1-.2.1-.3v-5.9c0-.2,0-.3-.1-.4,0,0-.2-.1-.3-.1h-.7v-.5ZM71,127h.7c.6,0,1-.1,1.4-.4.3-.2.4-.6.4-1.2s-.1-.9-.4-1.1c-.2-.2-.7-.3-1.3-.3s-.5,0-.6.1c0,0-.1.2-.1.5v2.4Z"/>
        <path class="cls-8" d="M77.1,123.5h6.8l.2,3h-.5c-.1-.6-.3-1.1-.4-1.5-.2-.4-.4-.6-.6-.8-.2-.1-.5-.2-.8-.2s-.3,0-.3,0c0,0-.1.2-.1.3v6c0,.1,0,.2.1.3,0,0,.2.1.3.1h.9v.5h-4.2v-.5h.8c.1,0,.2,0,.3-.1,0,0,.1-.2.1-.3v-6c0-.1,0-.2-.1-.3s-.2,0-.4,0c-.9,0-1.5.8-1.8,2.5h-.5l.2-3Z"/>
        <path class="cls-6" d="M88.3,123.5h4.2c.8,0,1.4.2,2,.5.6.3,1,.8,1.4,1.4s.5,1.3.5,2-.1,1.4-.4,2c-.3.6-.7,1-1.3,1.4-.6.3-1.2.5-1.9.5h-4.3v-.5h.6c.2,0,.3,0,.4-.1,0,0,.1-.2.1-.4v-5.9c0-.2,0-.3-.1-.3,0,0-.2-.1-.4-.1h-.6v-.5ZM92.1,130.8c.5,0,.9-.1,1.3-.4.4-.2.6-.6.8-1,.2-.4.2-1.1.2-2s0-1.6-.3-2.1c-.2-.5-.5-.8-.8-1.1s-.8-.3-1.5-.3-.6,0-.7,0c0,0-.1.2-.1.3v5.9c0,.2,0,.3.1.4,0,0,.2.1.3.1h.6Z"/>
        <path class="cls-5" d="M97.7,123.5h4.1c.7,0,1.2,0,1.6.3s.7.4.9.7c.2.3.3.6.3,1,0,.6-.3,1-.8,1.4-.4.3-1,.4-1.8.5.4,0,.7.2.9.3.2.1.4.4.6.7.2.4.4.8.5,1.4,0,.3.2.6.2.6,0,0,.1.1.2.1.2,0,.4-.3.4-.9h.5c0,.7-.2,1.1-.4,1.4s-.6.4-1.1.4-.6,0-.8-.2c-.2-.1-.4-.3-.5-.6,0-.2-.1-.5-.3-1.1-.1-.7-.2-1.1-.3-1.3-.1-.2-.2-.4-.4-.5-.2-.1-.4-.2-.6-.2h-.6v2.9c0,.1,0,.2.1.3.1,0,.2.1.4.1h.7v.5h-3.9v-.5h.6c.2,0,.3,0,.4-.1,0,0,.1-.2.1-.3v-5.9c0-.2,0-.3-.1-.4,0,0-.2-.1-.3-.1h-.7v-.5ZM100.5,127h.7c.6,0,1-.1,1.4-.4.3-.2.4-.6.4-1.2s-.1-.9-.4-1.1c-.2-.2-.7-.3-1.3-.3s-.5,0-.6.1c0,0-.1.2-.1.5v2.4Z"/>
        <path class="cls-31" d="M106.5,123.5h6.8l.2,2.7h-.5c-.1-.6-.2-1.1-.4-1.4-.2-.3-.4-.5-.6-.6-.3-.1-.6-.2-1-.2h-1.1c-.2,0-.3,0-.4,0,0,0-.1.2-.1.3v2.7h.4c.4,0,.7-.1,1-.4.2-.2.4-.6.4-1.2h.5v3.6h-.5c0-.6-.2-1-.4-1.3-.2-.2-.6-.4-1-.4h-.3v2.9c0,.1,0,.2.1.3.1,0,.3.1.5.1h.9c.6,0,1.2-.2,1.6-.6s.7-1,.8-1.9h.5v3h-7.2v-.5h.7c.2,0,.3,0,.4-.1,0,0,.1-.2.1-.3v-6c0-.1,0-.2-.1-.3,0,0-.2,0-.4,0h-.6v-.5Z"/>
        <path class="cls-30" d="M118.9,123.3l2.9,7c0,.2.2.3.3.4,0,0,.2.1.4.1h.3v.5h-3.7v-.5h.3c.3,0,.5,0,.6,0,.1,0,.2-.1.2-.2s0-.2,0-.3l-.6-1.4h-2.9l-.3.7c-.1.3-.2.5-.2.6,0,.2,0,.4.3.6.2.1.4.2.7.2h.2v.5h-3v-.5h.2c.2,0,.4,0,.5-.2.2-.2.4-.4.5-.6l2.8-6.7h.6ZM118,125.3l-1.2,3h2.5l-1.2-3Z"/>
        <path class="cls-32" d="M123.2,123.5h3.1l1.8,5.3,1.8-5.3h3.2v.5h-.7c-.2,0-.3,0-.4,0,0,0,0,.2,0,.3v5.9c0,.2,0,.3.1.3.1,0,.2.1.4.1h.6v.5h-4v-.5h.7c.1,0,.2,0,.3-.1,0,0,.1-.2.1-.3v-6.4l-2.5,7.3h-.5l-2.5-7.4v5.7c0,.3.1.6.3.8.2.2.5.3.9.4v.5h-2.9v-.5c.4,0,.6-.2.8-.4.2-.2.3-.5.3-.9v-5c0-.2,0-.4-.1-.4,0,0-.2-.1-.4-.1h-.6v-.5Z"/>
        <path class="cls-22" d="M139,124.1l.5-.7h.4v2.7s-.4,0-.4,0c-.2-.8-.6-1.3-1-1.7-.5-.4-1-.6-1.5-.6s-.8.1-1.1.4c-.3.3-.4.6-.4.9s0,.4.2.6c.1.2.3.3.6.4.3.1.7.3,1.4.4.8.2,1.3.3,1.6.4.5.2.8.5,1,.8s.3.7.3,1.2c0,.7-.2,1.3-.7,1.7-.6.5-1.3.8-2.2.8s-1.6-.3-2.2-.8l-.6.8h-.4v-2.9h.5c.5,1.6,1.4,2.5,2.8,2.5s1-.1,1.3-.4c.3-.3.5-.6.5-1s0-.5-.2-.7c-.1-.2-.4-.3-.7-.5-.2,0-.6-.2-1.2-.3-.9-.2-1.5-.4-1.8-.6-.4-.2-.6-.4-.8-.7-.2-.3-.3-.6-.3-1.1,0-.7.2-1.3.7-1.7s1.1-.7,1.9-.7,1.5.3,2.1.8Z"/>
      </g>
      <g>
        <path class="cls-23" d="M182.2,123.5h6.8l.2,2.7h-.5c-.1-.6-.2-1.1-.4-1.4-.2-.3-.4-.5-.6-.6-.3-.1-.6-.2-1-.2h-1.1c-.2,0-.3,0-.4,0,0,0-.1.2-.1.3v2.7h.4c.4,0,.7-.1,1-.4.2-.2.4-.6.4-1.2h.5v3.6h-.5c0-.6-.2-1-.4-1.3-.2-.2-.6-.4-1-.4h-.3v2.9c0,.1,0,.2.1.3.1,0,.3.1.5.1h.9c.6,0,1.2-.2,1.6-.6s.7-1,.8-1.9h.5v3h-7.2v-.5h.7c.2,0,.3,0,.4-.1,0,0,.1-.2.1-.3v-6c0-.1,0-.2-.1-.3,0,0-.2,0-.4,0h-.6v-.5Z"/>
        <path class="cls-24" d="M190.6,124v-.5h4v.5h-.7c-.2,0-.3,0-.4.1,0,0-.1.2-.1.4v5.8c0,.2,0,.4.1.4,0,0,.2,0,.5,0h1.1c.4,0,.8-.2,1.2-.6s.6-1,.8-1.9h.5l-.2,3h-6.8v-.5h.7c.1,0,.3,0,.3-.1,0,0,.1-.2.1-.3v-5.9c0-.1,0-.2-.1-.3,0,0-.2,0-.4,0h-.6Z"/>
        <path class="cls-25" d="M198.6,123.5h4v.5h-.7c-.2,0-.3,0-.3,0,0,0-.1.2-.1.3v6c0,.1,0,.2.1.3,0,0,.2.1.4.1h.6v.5h-4v-.5h.6c.2,0,.4,0,.4-.1,0,0,.1-.2.1-.3v-6c0-.1,0-.3-.1-.3,0,0-.2-.1-.4-.1h-.7v-.5Z"/>
        <path class="cls-18" d="M203.7,123.5h6.8l.2,3h-.5c-.1-.6-.3-1.1-.4-1.5-.2-.4-.4-.6-.6-.8-.2-.1-.5-.2-.8-.2s-.3,0-.3,0c0,0-.1.2-.1.3v6c0,.1,0,.2.1.3,0,0,.2.1.3.1h.9v.5h-4.2v-.5h.8c.1,0,.2,0,.3-.1,0,0,.1-.2.1-.3v-6c0-.1,0-.2-.1-.3s-.2,0-.4,0c-.9,0-1.5.8-1.8,2.5h-.5l.2-3Z"/>
        <path class="cls-19" d="M211.5,123.5h6.8l.2,2.7h-.5c-.1-.6-.2-1.1-.4-1.4-.2-.3-.4-.5-.6-.6-.3-.1-.6-.2-1-.2h-1.1c-.2,0-.3,0-.4,0,0,0-.1.2-.1.3v2.7h.4c.4,0,.7-.1,1-.4.2-.2.4-.6.4-1.2h.5v3.6h-.5c0-.6-.2-1-.4-1.3-.2-.2-.6-.4-1-.4h-.3v2.9c0,.1,0,.2.1.3.1,0,.3.1.5.1h.9c.6,0,1.2-.2,1.6-.6s.7-1,.8-1.9h.5v3h-7.2v-.5h.7c.2,0,.3,0,.4-.1,0,0,.1-.2.1-.3v-6c0-.1,0-.2-.1-.3,0,0-.2,0-.4,0h-.6v-.5Z"/>
        <path class="cls-17" d="M229.5,124.1l.4-.8h.4v3.1c.1,0-.4,0-.4,0-.1-.9-.4-1.6-.9-2-.4-.4-.9-.7-1.4-.7s-1.1.3-1.5.8c-.4.6-.6,1.4-.6,2.7s.2,2.2.6,2.8c.3.5.8.7,1.5.7s1.2-.2,1.7-.7c.3-.4.6-.9.7-1.6h.5c-.1.9-.5,1.6-1,2.1-.6.5-1.3.8-2.1.8s-2-.4-2.7-1.1-1.1-1.7-1.1-2.9.4-2.3,1.2-3.1c.7-.7,1.5-1,2.5-1s.7,0,1,.2c.3.1.7.3,1,.6Z"/>
        <path class="cls-29" d="M235.9,123.3c.7,0,1.4.2,2,.5.6.4,1.1.8,1.4,1.4s.5,1.3.5,2.1c0,1.2-.4,2.1-1.1,2.9-.8.8-1.7,1.2-2.8,1.2s-1.4-.2-2-.5c-.6-.4-1.1-.8-1.4-1.4-.3-.6-.5-1.3-.5-2.1,0-1.2.4-2.2,1.1-2.9s1.7-1.2,2.8-1.2ZM235.9,123.8c-.4,0-.8.1-1.1.3-.3.2-.5.6-.7,1.1-.2.5-.3,1.2-.3,2.1s0,1.6.3,2.1c.2.5.4.8.7,1.1.3.2.7.3,1.1.3.6,0,1.1-.3,1.5-.8.4-.5.6-1.5.6-2.8s0-1.6-.2-2.1c-.2-.5-.4-.8-.7-1-.3-.2-.7-.3-1.1-.3Z"/>
        <path class="cls-27" d="M241,123.5h2.4l4.2,5.3v-3.6c0-.4-.1-.6-.3-.9-.2-.2-.5-.3-.9-.4v-.5h2.8v.5c-.4,0-.7.2-.9.4-.2.2-.3.5-.3.9v6.1h-.6l-4.8-6.1v4.3c0,.5.1.8.3,1.1.2.2.5.3.8.3h.1v.5h-3.1v-.5h.2c.3,0,.6-.1.8-.4.2-.2.3-.6.3-.9v-5c-.2-.3-.5-.5-.9-.5h-.3v-.5Z"/>
        <path class="cls-28" d="M255.2,124.1l.5-.7h.4v2.7s-.4,0-.4,0c-.2-.8-.6-1.3-1-1.7-.5-.4-1-.6-1.5-.6s-.8.1-1.1.4c-.3.3-.4.6-.4.9s0,.4.2.6c.1.2.3.3.6.4.3.1.7.3,1.4.4.8.2,1.3.3,1.6.4.5.2.8.5,1,.8s.3.7.3,1.2c0,.7-.2,1.3-.7,1.7-.6.5-1.3.8-2.2.8s-1.6-.3-2.2-.8l-.6.8h-.4v-2.9h.5c.5,1.6,1.4,2.5,2.8,2.5s1-.1,1.3-.4c.3-.3.5-.6.5-1s0-.5-.2-.7c-.1-.2-.4-.3-.7-.5-.2,0-.6-.2-1.2-.3-.9-.2-1.5-.4-1.8-.6-.4-.2-.6-.4-.8-.7-.2-.3-.3-.6-.3-1.1,0-.7.2-1.3.7-1.7s1.1-.7,1.9-.7,1.5.3,2.1.8Z"/>
        <path class="cls-14" d="M257.8,123.5h6.8l.2,3h-.5c-.1-.6-.3-1.1-.4-1.5-.2-.4-.4-.6-.6-.8-.2-.1-.5-.2-.8-.2s-.3,0-.3,0c0,0-.1.2-.1.3v6c0,.1,0,.2.1.3,0,0,.2.1.3.1h.9v.5h-4.2v-.5h.8c.1,0,.2,0,.3-.1,0,0,.1-.2.1-.3v-6c0-.1,0-.2-.1-.3s-.2,0-.4,0c-.9,0-1.5.8-1.8,2.5h-.5l.2-3Z"/>
        <path class="cls-12" d="M265.9,123.5h4.1c.7,0,1.2,0,1.6.3s.7.4.9.7c.2.3.3.6.3,1,0,.6-.3,1-.8,1.4-.4.3-1,.4-1.8.5.4,0,.7.2.9.3.2.1.4.4.6.7.2.4.4.8.5,1.4,0,.3.2.6.2.6,0,0,.1.1.2.1.2,0,.4-.3.4-.9h.5c0,.7-.2,1.1-.4,1.4s-.6.4-1.1.4-.6,0-.8-.2c-.2-.1-.4-.3-.5-.6,0-.2-.1-.5-.3-1.1-.1-.7-.2-1.1-.3-1.3-.1-.2-.2-.4-.4-.5-.2-.1-.4-.2-.6-.2h-.6v2.9c0,.1,0,.2.1.3.1,0,.2.1.4.1h.7v.5h-3.9v-.5h.6c.2,0,.3,0,.4-.1,0,0,.1-.2.1-.3v-5.9c0-.2,0-.3-.1-.4,0,0-.2-.1-.3-.1h-.7v-.5ZM268.6,127h.7c.6,0,1-.1,1.4-.4.3-.2.4-.6.4-1.2s-.1-.9-.4-1.1c-.2-.2-.7-.3-1.3-.3s-.5,0-.6.1c0,0-.1.2-.1.5v2.4Z"/>
        <path class="cls-26" d="M274.6,123.5h3.9v.5h-.8c-.1,0-.2,0-.3.1,0,0,0,.2,0,.3v4.3c0,.6.2,1.1.5,1.4.3.3.8.5,1.3.5s.8,0,1.1-.3c.2-.1.5-.4.6-.7.2-.3.2-.7.2-1.2v-3.3c0-.4,0-.7-.3-.9s-.4-.3-.8-.3h-.1v-.5h3v.5h-.2c-.3,0-.5.1-.7.3-.2.2-.2.5-.2.9v3.6c0,.8-.3,1.4-.8,1.9-.5.5-1.3.7-2.2.7s-1.3-.1-1.7-.3c-.5-.2-.8-.5-1.1-.8-.2-.3-.3-.8-.3-1.4v-4.4c0-.2,0-.3-.1-.4,0,0-.2-.1-.4-.1h-.6v-.5Z"/>
        <path class="cls-16" d="M290.1,124.1l.4-.8h.4v3.1c.1,0-.4,0-.4,0-.1-.9-.4-1.6-.9-2-.4-.4-.9-.7-1.4-.7s-1.1.3-1.5.8c-.4.6-.6,1.4-.6,2.7s.2,2.2.6,2.8c.3.5.8.7,1.5.7s1.2-.2,1.7-.7c.3-.4.6-.9.7-1.6h.5c-.1.9-.5,1.6-1,2.1-.6.5-1.3.8-2.1.8s-2-.4-2.7-1.1-1.1-1.7-1.1-2.9.4-2.3,1.2-3.1c.7-.7,1.5-1,2.5-1s.7,0,1,.2c.3.1.7.3,1,.6Z"/>
        <path class="cls-11" d="M292.5,123.5h6.8l.2,3h-.5c-.1-.6-.3-1.1-.4-1.5-.2-.4-.4-.6-.6-.8-.2-.1-.5-.2-.8-.2s-.3,0-.3,0c0,0-.1.2-.1.3v6c0,.1,0,.2.1.3,0,0,.2.1.3.1h.9v.5h-4.2v-.5h.8c.1,0,.2,0,.3-.1,0,0,.1-.2.1-.3v-6c0-.1,0-.2-.1-.3s-.2,0-.4,0c-.9,0-1.5.8-1.8,2.5h-.5l.2-3Z"/>
        <path class="cls-13" d="M300.4,123.5h4v.5h-.7c-.2,0-.3,0-.3,0,0,0-.1.2-.1.3v6c0,.1,0,.2.1.3,0,0,.2.1.4.1h.6v.5h-4v-.5h.6c.2,0,.4,0,.4-.1,0,0,.1-.2.1-.3v-6c0-.1,0-.3-.1-.3,0,0-.2-.1-.4-.1h-.7v-.5Z"/>
        <path class="cls-15" d="M309.4,123.3c.7,0,1.4.2,2,.5.6.4,1.1.8,1.4,1.4s.5,1.3.5,2.1c0,1.2-.4,2.1-1.1,2.9-.8.8-1.7,1.2-2.8,1.2s-1.4-.2-2-.5c-.6-.4-1.1-.8-1.4-1.4-.3-.6-.5-1.3-.5-2.1,0-1.2.4-2.2,1.1-2.9s1.7-1.2,2.8-1.2ZM309.5,123.8c-.4,0-.8.1-1.1.3-.3.2-.5.6-.7,1.1-.2.5-.3,1.2-.3,2.1s0,1.6.3,2.1c.2.5.4.8.7,1.1.3.2.7.3,1.1.3.6,0,1.1-.3,1.5-.8.4-.5.6-1.5.6-2.8s0-1.6-.2-2.1c-.2-.5-.4-.8-.7-1-.3-.2-.7-.3-1.1-.3Z"/>
        <path class="cls-20" d="M314.6,123.5h2.4l4.2,5.3v-3.6c0-.4-.1-.6-.3-.9-.2-.2-.5-.3-.9-.4v-.5h2.8v.5c-.4,0-.7.2-.9.4-.2.2-.3.5-.3.9v6.1h-.6l-4.8-6.1v4.3c0,.5.1.8.3,1.1.2.2.5.3.8.3h.1v.5h-3.1v-.5h.2c.3,0,.6-.1.8-.4.2-.2.3-.6.3-.9v-5c-.2-.3-.5-.5-.9-.5h-.3v-.5Z"/>
      </g>
      <polygon class="cls-21" points="167.5 128.5 162.1 131.4 156.7 128.5 162.1 125.6 167.5 128.5"/>
    </g>
  </g>
</svg>